<?xml version="1.0" encoding="UTF-8"?>
<svg width="101px" height="34px" viewBox="0 0 101 34" version="1.1" xmlns="http://www.w3.org/2000/svg" xmlns:xlink="http://www.w3.org/1999/xlink">
    <title>Logos/logo-pdf-tools</title>
    <g stroke="none" stroke-width="1" fill="none" fill-rule="evenodd">
        <g>
            <g>
                <path d="M9.81564139,15.8561385 C9.65291232,15.8561385 9.47391035,15.889312 9.36,15.9390723 L9.36,18.9757948 C9.45763744,18.9919333 9.55527488,18.9919333 9.65291232,18.9919333 C10.6622723,18.9919333 10.9877305,18.2284939 10.9877305,17.4152942 C10.9877305,16.519609 10.6297265,15.8561385 9.81564139,15.8561385 Z M17.1573612,15.84 C17.0271779,15.84 16.9128277,15.84 16.7993572,15.889312 L16.7993572,23.0068265 C16.8807217,23.04 17.0276177,23.04 17.1410882,23.04 C18.020265,23.04 18.72,22.0116207 18.72,19.2402864 C18.72,17.1664927 18.2476459,15.84 17.1573612,15.84 Z" id="Shape" fill="#161616" fill-rule="nonzero"></path>
                <path d="M29.1053401,5.23392093 L10.1470653,0.137347225 C8.00815273,-0.437947492 5.78887772,0.847469524 5.21635199,2.99377887 L0.136718436,22.0131224 C-0.436261323,24.1594318 0.844997695,26.3849979 2.98391025,26.9598371 L21.941731,32.0559553 C24.0806436,32.63125 26.2994646,31.345833 26.8728984,29.1995237 L31.9525319,10.1806356 C32.5255117,8.03478175 31.2442527,5.80876015 29.1053401,5.23392093 Z M12.2378512,20.2453324 C11.4986982,20.9536327 10.322319,21.2565393 9.44832056,21.2565393 L9.06194514,21.2565393 L9.06194514,25.3031887 L6.47445572,25.3031887 L6.47445572,14.1088554 C7.14641297,13.9740278 8.07080821,13.8897606 8.96115156,13.8897606 C10.3895147,13.8897606 11.4818993,14.0582951 12.288248,14.7825378 C13.010602,15.4065709 13.3129828,16.3845264 13.3129828,17.3287749 C13.3129828,18.6433439 12.8930095,19.5875924 12.2378512,20.2453324 Z M19.7492435,24.3584847 C18.9592397,25.050387 17.8337113,25.4038539 16.1361113,25.4038539 C15.3633604,25.4038539 14.6074085,25.3191312 14.1533834,25.2690263 L14.1533834,14.1093109 C14.724547,13.9908813 15.6321433,13.8902161 16.6064813,13.8902161 C18.1356381,13.8902161 19.1939707,14.243683 19.9671756,14.9692923 C20.9751115,15.8957764 21.412338,17.4134977 21.412338,19.5374876 C21.4127917,21.7115824 20.8416281,23.4320005 19.7492435,24.3584847 L19.7492435,24.3584847 Z M27.9330471,16.1991384 L25.3455577,16.1991384 L25.3455577,18.6606528 L27.7823108,18.6606528 L27.7823108,20.8183496 L25.3455577,20.8183496 L25.3455577,25.3027332 L22.7412694,25.3027332 L22.7412694,13.9403209 L27.9330471,13.9403209 L27.9330471,16.1991384 L27.9330471,16.1991384 Z M34.0837261,18.9767688 L34.0837261,20.8151611 L30.8910211,20.8151611 L30.8910211,18.9767688 L34.0837261,18.9767688 Z M36.3520358,16.3676729 L34.3861068,16.3676729 L34.3861068,13.9403209 L40.9395061,13.9403209 L40.9395061,16.3676729 L38.9567782,16.3676729 L38.9567782,25.3027332 L36.3520358,25.3027332 L36.3520358,16.3676729 Z M48.9721193,19.3689531 C48.9721193,23.6674933 47.4266176,25.4375608 45.1410549,25.4375608 C42.2843286,25.4375608 41.3771863,22.4030292 41.3771863,19.5875924 C41.3771863,16.7721557 42.5535655,13.8059489 45.2922453,13.8059489 C48.3673578,13.8059489 48.9721193,17.2112563 48.9721193,19.3689531 Z M44.0822682,19.6217548 C44.0822682,22.3028195 44.5694373,23.1791988 45.2250496,23.1791988 C45.9306047,23.1791988 46.2665833,21.830012 46.2665833,19.5042362 C46.2665833,17.5487808 45.9978004,16.0647662 45.2077966,16.0647662 C44.5694373,16.0643109 44.0822682,17.1269891 44.0822682,19.6217548 Z M57.3239122,19.3689531 C57.3239122,23.6674933 55.7784105,25.4375608 53.4923938,25.4375608 C50.6361215,25.4375608 49.7289792,22.4030292 49.7289792,19.5875924 C49.7289792,16.7721557 50.9053584,13.8059489 53.6440382,13.8059489 C56.7186967,13.8059489 57.3239122,17.2112563 57.3239122,19.3689531 Z M52.4345152,19.6217548 C52.4345152,22.3028195 52.9221382,23.1791988 53.5768425,23.1791988 C54.2823976,23.1791988 54.6192843,21.830012 54.6192843,19.5042362 C54.6192843,17.5487808 54.3500474,16.0647662 53.5604976,16.0647662 C52.9221382,16.0643109 52.4345152,17.1269891 52.4345152,19.6217548 L52.4345152,19.6217548 Z M58.6523898,13.9403209 L61.2566782,13.9403209 L61.2566782,23.0944761 L64.0289559,23.0944761 L64.0289559,25.3027332 L58.6519358,25.3027332 L58.6519358,13.9403209 L58.6523898,13.9403209 Z M65.0377998,22.7063913 C65.5245148,22.9765019 66.3481164,23.1450364 67.0032747,23.1450364 C67.9780667,23.1450364 68.4143849,22.7063913 68.4143849,22.1338296 C68.4143849,21.4246182 67.9444689,21.1053137 66.9528779,20.5154431 C65.1217944,19.419058 64.8185056,18.1714473 64.8185056,17.3292304 C64.8185056,15.4571312 66.0289367,13.8387448 68.650024,13.8387448 C69.4232288,13.8387448 70.1628358,14.0409861 70.5147053,14.243683 L70.1451289,16.4856471 C69.8096043,16.2834057 69.3219812,16.0980178 68.6663689,16.0980178 C67.7923705,16.0980178 67.3723972,16.5535163 67.3723972,17.0759732 C67.3723972,17.5642677 67.6080362,17.8844832 68.885209,18.6100925 C70.4479636,19.4869273 70.9687305,20.6839775 70.9687305,21.8468654 C70.9687305,23.9867978 69.3728321,25.4033984 66.9864758,25.4033984 C66.0116838,25.4033984 65.1040874,25.1843036 64.7018212,24.9652088 L65.0377998,22.7063913 L65.0377998,22.7063913 Z M73.4567884,25.4375608 C72.6835836,25.4375608 72.0116263,24.7798208 72.0116263,23.768614 C72.0116263,22.7906585 72.7176355,22.0828137 73.4908403,22.0828137 C74.2803901,22.0828137 74.9523473,22.7063913 74.9523473,23.768614 C74.9523473,24.7798208 74.3471318,25.4375608 73.4731333,25.4375608 L73.4567884,25.4375608 Z M81.9938236,25.1505967 C81.6905348,25.2854243 81.0526294,25.4038539 80.2626257,25.4038539 C77.0703747,25.4038539 75.7754949,22.7574071 75.7754949,19.8066873 C75.7754949,15.6092678 78.212248,13.8387448 80.5822594,13.8387448 C81.404953,13.8387448 81.9597717,14.0072792 82.1781578,14.1425623 L81.7745295,16.333055 C81.4712457,16.1847819 81.1375395,16.109899 80.8001915,16.1144157 C79.5230187,16.1144157 78.5314277,17.160696 78.5314277,19.6896241 C78.5314277,22.0664158 79.4553689,23.0949316 80.7665936,23.0949316 C81.0857733,23.0949316 81.5057466,23.0275178 81.7745295,22.959193 L81.9938236,25.1505967 L81.9938236,25.1505967 Z M89.992839,19.3689531 C89.992839,23.6674933 88.4464293,25.4375608 86.1613206,25.4375608 C83.3050483,25.4375608 82.397452,22.4030292 82.397452,19.5875924 C82.397452,16.7721557 83.5742852,13.8059489 86.312965,13.8059489 C89.3876234,13.8059489 89.992839,17.2112563 89.992839,19.3689531 Z M85.1025339,19.6217548 C85.1025339,22.3028195 85.5897029,23.1791988 86.2457693,23.1791988 C86.9513244,23.1791988 87.287303,21.830012 87.287303,19.5042362 C87.287303,17.5487808 87.0189741,16.0647662 86.2294244,16.0647662 C85.5897029,16.0643109 85.1025339,17.1269891 85.1025339,19.6217548 Z M98.2769822,21.7288913 C98.2270394,20.8183496 98.1589356,19.4527649 98.1752805,18.2557146 L98.1416827,18.2557146 C97.9573484,19.4527649 97.6554217,20.86891 97.5037773,21.5603568 L96.6978826,25.0663295 L94.8154943,25.0663295 L94.0422894,21.5603568 C93.8920071,20.86891 93.6059712,19.4527649 93.4543268,18.2557146 L93.420729,18.2557146 C93.3707862,19.4527649 93.2863375,20.8183496 93.2363948,21.7288913 L93.0511525,25.3027332 L90.8500385,25.3027332 L91.7235829,13.9403209 L94.4459178,13.9403209 L95.1691799,17.5820322 C95.4538537,18.9977218 95.7394355,20.3132017 95.9246778,21.5945192 L95.9582756,21.5945192 C96.109012,20.3464531 96.360996,18.9817793 96.6297789,17.5820322 L97.3521329,13.9403209 L100.058123,13.9403209 L100.763678,25.3027332 L98.4617704,25.3027332 L98.2769822,21.7288913 L98.2769822,21.7288913 Z M76.1418933,30.0153216 C76.1418933,29.6030954 76.0311111,29.2710369 75.8090928,29.0191462 C75.5870745,28.767711 75.2860558,28.6419934 74.9046747,28.6419934 C74.4974141,28.6419934 74.1736942,28.7868419 73.9312447,29.076539 C73.6901574,29.3662361 73.5693867,29.7565984 73.5693867,30.2485369 C73.5693867,30.7368314 73.6996919,31.1185392 73.9593943,31.3932049 C74.2186426,31.6678705 74.5741444,31.8049756 75.0236293,31.8049756 C75.2293027,31.8049756 75.4045564,31.7894886 75.5498444,31.7589702 C75.7083562,31.723766 75.8630197,31.6729597 76.011588,31.6072892 L76.011588,31.1955185 C75.7052135,31.3297033 75.3747227,31.3996121 75.0404282,31.4009483 C74.729421,31.4009483 74.4883336,31.3084821 74.3171661,31.1226387 C74.1464526,30.9372508 74.0556476,30.6653181 74.0465671,30.3072962 L76.1414392,30.3072962 L76.1414392,30.0153216 L76.1418933,30.0153216 Z M74.0579177,29.9310544 C74.0837972,29.6495563 74.1691539,29.4281839 74.314442,29.2687594 C74.459276,29.1088794 74.6540528,29.0291672 74.8983183,29.0291672 C75.1389517,29.0291672 75.3241939,29.1066019 75.4535911,29.261927 C75.5834423,29.4167965 75.6483679,29.6399908 75.6483679,29.9315099 L74.0579177,29.9315099 L74.0579177,29.9310544 Z M37.2836954,28.8647322 C37.2836954,29.2769584 37.1434016,29.5944409 36.8632681,29.8158132 C36.5826806,30.0376411 36.1822304,30.1483272 35.6601014,30.1483272 L35.182921,30.1483272 L35.182921,31.7494047 L34.7107348,31.7494047 L34.7107348,27.6786139 L35.7627111,27.6786139 C36.7765493,27.6790694 37.2836954,28.0739866 37.2836954,28.8647322 L37.2836954,28.8647322 Z M35.182921,29.7420225 L35.6074345,29.7420225 C36.0255917,29.7420225 36.3279724,29.6741532 36.5150308,29.5384146 C36.7020892,29.403587 36.7951643,29.1863142 36.7951643,28.8870516 C36.7951643,28.617852 36.7070835,28.4174326 36.5313757,28.2857935 C36.355668,28.1541544 36.0818908,28.0881071 35.7095902,28.0881071 L35.182467,28.0881071 L35.182467,29.7420225 L35.182921,29.7420225 Z M39.1497388,28.6419807 C39.2845843,28.6419807 39.405809,28.6529253 39.512959,28.6752448 L39.4493955,29.1043244 C39.3401741,29.0781021 39.2284297,29.0638978 39.116141,29.0619631 C38.8700593,29.0619631 38.6598457,29.1626283 38.484592,29.3625921 C38.3097923,29.5630115 38.2221654,29.8130802 38.2221654,30.1118873 L38.2221654,31.7494047 L37.7613299,31.7494047 L37.7613299,28.6980197 L38.141803,28.6980197 L38.1944699,29.262838 L38.2167171,29.262838 C38.3297694,29.0642406 38.4655229,28.9116485 38.6244317,28.8032399 C38.7791638,28.6972498 38.9623825,28.6410096 39.1497388,28.6419807 L39.1497388,28.6419807 Z M41.2010245,31.8054311 C40.7515396,31.8054311 40.396492,31.6678705 40.1367896,31.3936604 C39.8770872,31.1194502 39.7467819,30.7377424 39.7467819,30.2489924 C39.7467819,29.7570539 39.8675526,29.3662361 40.109094,29.0769945 C40.3506354,28.7877529 40.6748094,28.6424489 41.08207,28.6424489 C41.4629971,28.6424489 41.7649238,28.7681665 41.9869421,29.0196017 C42.2089604,29.2714924 42.3201966,29.6030954 42.3201966,30.0157771 L42.3201966,30.3082072 L40.2244164,30.3082072 C40.2339509,30.6662291 40.324302,30.9381618 40.4954694,31.1235497 C40.6661829,31.3093931 40.9077243,31.4018593 41.2182775,31.4018593 C41.5456296,31.4018593 41.8693496,31.3335345 42.1894373,31.1964295 L42.1894373,31.6082002 C42.0407647,31.674008 41.8859369,31.7248184 41.7272397,31.7598812 C41.5819517,31.7894886 41.4066979,31.8054311 41.2010245,31.8054311 L41.2010245,31.8054311 Z M41.0761676,29.0291672 C40.8319021,29.0291672 40.6371253,29.1093349 40.4918372,29.2687594 C40.3465492,29.4281839 40.2611925,29.6495563 40.235313,29.9310544 L41.8257632,29.9310544 C41.8257632,29.6395353 41.7608376,29.416341 41.6314404,29.2614715 C41.5015892,29.1066019 41.316801,29.0291672 41.0761676,29.0291672 Z M46.8490976,31.7494047 L46.8490976,29.7643419 C46.8490976,29.5211057 46.7973387,29.3384507 46.693367,29.2168326 C46.5898492,29.0952145 46.4286703,29.0350887 46.2107382,29.0350887 C45.9237943,29.0350887 45.7117646,29.1175339 45.575103,29.2833354 C45.4384414,29.4482259 45.3698836,29.7023941 45.3698836,30.04584 L45.3698836,31.7498602 L44.9090481,31.7498602 L44.9090481,29.7647974 C44.9090481,29.5215612 44.8568352,29.3389062 44.7537715,29.2172881 C44.6497997,29.09567 44.4881667,29.0355442 44.2679645,29.0355442 C43.9792045,29.0355442 43.7680828,29.1220889 43.6341454,29.2956339 C43.500208,29.4696343 43.4330123,29.7538654 43.4330123,30.1492382 L43.4330123,31.7503157 L42.9717227,31.7503157 L42.9717227,28.6989307 L43.3462935,28.6989307 L43.4212076,29.1161674 L43.4434548,29.1161674 C43.5301736,28.9681304 43.6527604,28.8519782 43.8112152,28.7681665 C43.9754202,28.6830432 44.1580704,28.6400101 44.3428787,28.6429044 C44.818243,28.6429044 45.1287963,28.8159938 45.2754464,29.1608063 L45.2976936,29.1608063 C45.3884987,29.0013818 45.5197119,28.8752087 45.6917875,28.7822869 C45.8732645,28.6873056 46.0755462,28.6393897 46.2802041,28.6429044 C46.6243552,28.6429044 46.8822414,28.7317266 47.0534089,28.9089156 C47.2245764,29.0861045 47.3099332,29.3698801 47.3099332,29.7597869 L47.3099332,31.7503157 L46.8490976,31.7503157 L46.8490976,31.7494047 Z M48.1902879,27.8708343 C48.1902879,27.7656141 48.2166214,27.6881793 48.2683803,27.63853 C48.3209203,27.5891861 48.3907637,27.5626643 48.462703,27.5647392 C48.5367092,27.5647392 48.6007267,27.5902471 48.6543017,27.6398965 C48.7078766,27.6895458 48.7346641,27.7669806 48.7346641,27.8708343 C48.7346641,27.9751434 48.7078766,28.0521227 48.6543017,28.103594 C48.6007267,28.1550654 48.5367092,28.1801178 48.462703,28.1801178 C48.3846107,28.1801178 48.3205932,28.1546099 48.2683803,28.103594 C48.2161674,28.0525782 48.1902879,27.9746879 48.1902879,27.8708343 Z M48.6901697,31.7494047 L48.2293341,31.7494047 L48.2293341,28.6980197 L48.6901697,28.6980197 L48.6901697,31.7494047 Z M50.1071822,28.6980197 L50.1071822,30.6776166 C50.1071822,30.9263188 50.1639353,31.1117067 50.2765336,31.2346913 C50.3895859,31.3572205 50.5662016,31.4182573 50.806835,31.4182573 C51.1251066,31.4182573 51.3575675,31.331257 51.5046717,31.1563456 C51.6513218,30.9823451 51.7253279,30.6967475 51.7253279,30.3018302 L51.7253279,28.6980197 L52.1857094,28.6980197 L52.1857094,31.7494047 L51.8061444,31.7494047 L51.7394027,31.340367 L51.7144313,31.340367 C51.61954,31.4906815 51.4892348,31.6059227 51.3216995,31.6856349 C51.1421083,31.7682633 50.9462601,31.8092104 50.7487198,31.8054311 C50.3786892,31.8054311 50.1012799,31.7175198 49.9169457,31.5412419 C49.7330655,31.3649639 49.6413524,31.0825548 49.6413524,30.6949255 L49.6413524,28.6984752 L50.1071822,28.6984752 L50.1071822,28.6980197 Z M56.9316345,31.7494047 L56.9316345,29.7643419 C56.9316345,29.5211057 56.8798756,29.3384507 56.7759038,29.2168326 C56.6719321,29.0952145 56.5112072,29.0350887 56.2932751,29.0350887 C56.0063312,29.0350887 55.7943014,29.1175339 55.6580939,29.2833354 C55.5209783,29.4482259 55.4524205,29.7023941 55.4524205,30.04584 L55.4524205,31.7498602 L54.992039,31.7498602 L54.992039,29.7647974 C54.992039,29.5215612 54.9398261,29.3389062 54.8363083,29.2172881 C54.7323366,29.09567 54.5707036,29.0355442 54.3505014,29.0355442 C54.0617414,29.0355442 53.8506197,29.1220889 53.7166823,29.2956339 C53.5822908,29.4696343 53.5146411,29.7538654 53.5146411,30.1492382 L53.5146411,31.7503157 L53.0542595,31.7503157 L53.0542595,28.6989307 L53.4288303,28.6989307 L53.5041985,29.1161674 L53.5264457,29.1161674 C53.6131645,28.9681304 53.7357513,28.8519782 53.8942061,28.7681665 C54.0582489,28.683045 54.2407521,28.6400097 54.4254155,28.6429044 C54.9012339,28.6429044 55.2117871,28.8159938 55.3579832,29.1608063 L55.3802305,29.1608063 C55.4710355,29.0013818 55.6022488,28.8752087 55.7743243,28.7822869 C55.9468539,28.6898207 56.1429928,28.6429044 56.3627409,28.6429044 C56.707346,28.6429044 56.9647783,28.7317266 57.1359458,28.9089156 C57.3071133,29.0861045 57.392016,29.3698801 57.392016,29.7597869 L57.392016,31.7503157 L56.9316345,31.7503157 L56.9316345,31.7494047 Z M62.1924241,28.8647322 C62.1924241,29.2769584 62.0516763,29.5944409 61.7715427,29.8158132 C61.4914092,30.0376411 61.0895969,30.1483272 60.5688301,30.1483272 L60.0907416,30.1483272 L60.0907416,31.7494047 L59.6194634,31.7494047 L59.6194634,27.6786139 L60.6709857,27.6786139 C61.6852779,27.6790694 62.1924241,28.0739866 62.1924241,28.8647322 Z M60.0907416,29.7420225 L60.5157091,29.7420225 C60.9343203,29.7420225 61.2367011,29.6741532 61.4233054,29.5384146 C61.6103638,29.403587 61.703893,29.1863142 61.703893,28.8870516 C61.703893,28.617852 61.6162661,28.4174326 61.4405584,28.2857935 C61.2639426,28.1541544 60.9906194,28.0881071 60.6187728,28.0881071 L60.0907416,28.0881071 L60.0907416,29.7420225 L60.0907416,29.7420225 Z M66.2082767,29.6750642 C66.2082767,30.3473801 66.0271206,30.8611825 65.6629924,31.2164714 C65.2997723,31.5717603 64.7767353,31.7498602 64.0938815,31.7498602 L62.9697151,31.7498602 L62.9697151,27.6790694 L64.212836,27.6790694 C64.8443851,27.6790694 65.3347322,27.8544363 65.6838776,28.2047147 C66.033477,28.5563596 66.2082767,29.0460206 66.2082767,29.6750642 L66.2082767,29.6750642 Z M65.709303,29.6919176 C65.709303,29.1608063 65.5758196,28.7608785 65.3102149,28.4916788 C65.0450642,28.2229347 64.6505163,28.0881071 64.1270253,28.0881071 L63.4414473,28.0881071 L63.4414473,31.340367 L64.0162432,31.340367 C64.5787803,31.340367 65.0019318,31.2014399 65.2847895,30.9240413 C65.5676471,30.6466427 65.709303,30.2357829 65.709303,29.6919176 L65.709303,29.6919176 Z M67.476823,31.7494047 L67.0050908,31.7494047 L67.0050908,27.6786139 L69.2665902,27.6786139 L69.2665902,28.0990391 L67.476823,28.0990391 L67.476823,29.5889749 L69.1585322,29.5889749 L69.1585322,30.0094001 L67.476823,30.0094001 L67.476823,31.7494047 Z M72.4193409,31.7494047 L71.9480628,31.7494047 L71.9480628,28.0994946 L70.6627176,28.0994946 L70.6627176,27.6790694 L73.7046862,27.6790694 L73.7046862,28.0994946 L72.4193409,28.0994946 L72.4193409,31.7494047 Z M78.121443,31.8054311 C77.6805845,31.8054311 77.3396116,31.669237 77.0985243,31.3977598 C76.8574369,31.1253717 76.7362122,30.7409309 76.7362122,30.2430709 C76.7362122,29.7329125 76.859253,29.3384507 77.1044266,29.0601411 C77.3496002,28.7813759 77.6987455,28.6419934 78.1518627,28.6419934 C78.2980588,28.6419934 78.4447089,28.6579358 78.590451,28.6893652 C78.7371011,28.7207946 78.8519695,28.7581455 78.9350561,28.8005069 L78.7929462,29.1931467 C78.6849476,29.1502733 78.5736457,29.1163021 78.4601457,29.0915705 C78.355728,29.0661978 78.2488407,29.0524498 78.1414201,29.0505756 C77.5234918,29.0505756 77.2138467,29.4464039 77.2138467,30.2366939 C77.2138467,30.6115693 77.2896689,30.8994444 77.4408592,31.0998638 C77.5911416,31.3002831 77.8140679,31.4004928 78.1110004,31.4004928 C78.3643464,31.4004928 78.6245029,31.345833 78.8910156,31.2365133 L78.8910156,31.6455511 C78.6867043,31.7525932 78.4301801,31.8054311 78.121443,31.8054311 L78.121443,31.8054311 Z M81.7472879,31.7494047 L81.7472879,29.7757294 C81.7472879,29.5270271 81.6905348,29.3411837 81.5774825,29.2186546 C81.4648843,29.09567 81.2878145,29.0350887 81.0476352,29.0350887 C80.7275474,29.0350887 80.4941785,29.1220889 80.3466203,29.2965449 C80.2004242,29.4714563 80.1264181,29.7570539 80.1264181,30.1542487 L80.1264181,31.7498602 L79.6651285,31.7498602 L79.6651285,27.4171577 L80.1264181,27.4171577 L80.1264181,28.7285381 C80.1264181,28.8865961 80.1191537,29.0173242 80.1041709,29.1211779 L80.1318664,29.1211779 C80.2226714,28.9745073 80.3516146,28.8592662 80.5191499,28.7745435 C80.6871392,28.6898207 80.8782838,28.6474594 81.0925837,28.6474594 C81.4644303,28.6474594 81.7436557,28.7367371 81.9298061,28.913926 C82.1155024,29.091115 82.2085775,29.3726131 82.2085775,29.7588759 L82.2085775,31.7494047 L81.7472879,31.7494047 Z M85.1910688,31.7494047 L85.1910688,29.7757294 C85.1910688,29.5270271 85.1347697,29.3411837 85.0221715,29.2186546 C84.9091192,29.09567 84.7325034,29.0350887 84.4918701,29.0350887 C84.1735984,29.0350887 83.9397755,29.1211779 83.7922173,29.2933564 C83.6446591,29.4664458 83.570199,29.7511324 83.570199,30.1487827 L83.570199,31.7498602 L83.1098175,31.7498602 L83.1098175,28.6984752 L83.4843882,28.6984752 L83.5588484,29.1157119 L83.5810956,29.1157119 C83.6755328,28.9653974 83.8076541,28.8487897 83.9783676,28.7663445 C84.1560534,28.6819249 84.3506793,28.6395386 84.5472611,28.6424489 C84.9136595,28.6424489 85.1892527,28.7312711 85.374495,28.9084601 C85.5592832,29.085649 85.6514503,29.3694246 85.6514503,29.7593314 L85.6514503,31.7498602 L85.1910688,31.7498602 L85.1910688,31.7494047 Z M89.2772953,30.2207515 C89.2772953,30.7186114 89.1528924,31.1066962 88.9031786,31.3868279 C88.6530107,31.6660485 88.3079516,31.8054311 87.8675472,31.8054311 C87.5960401,31.8054311 87.3544987,31.7416613 87.142923,31.6132107 C86.9295204,31.4819133 86.7596798,31.2901235 86.654846,31.0620574 C86.5399776,30.8224651 86.4827704,30.541878 86.4827704,30.2207515 C86.4827704,29.723347 86.6062653,29.3361732 86.854163,29.0587746 C87.1025148,28.7813759 87.4466659,28.6419934 87.8870703,28.6419934 C88.3124918,28.6419934 88.6507406,28.7841089 88.9009085,29.0683401 C89.1519844,29.3521157 89.2772953,29.737012 89.2772953,30.2207515 L89.2772953,30.2207515 Z M86.9599509,30.2207515 C86.9599509,30.6106583 87.0380432,30.9080989 87.1937738,31.1117067 C87.3490504,31.3162256 87.5774251,31.4182573 87.8788978,31.4182573 C88.1808245,31.4182573 88.4096532,31.3166811 88.5662919,31.1135287 C88.7224766,30.9099208 88.8010229,30.6124803 88.8010229,30.2207515 C88.8010229,29.8326667 88.7224766,29.5384146 88.5662919,29.3370842 C88.4096532,29.1362093 88.1785544,29.0350887 87.8734495,29.0350887 C87.5724308,29.0350887 87.3445102,29.1343874 87.1910497,29.3329847 C87.0371352,29.5311266 86.9599509,29.8276562 86.9599509,30.2207515 L86.9599509,30.2207515 Z M90.4899965,31.7494047 L90.029161,31.7494047 L90.029161,27.4167022 L90.4899965,27.4167022 L90.4899965,31.7494047 Z M94.1489853,30.2207515 C94.1489853,30.7186114 94.0236744,31.1066962 93.7744146,31.3868279 C93.5242467,31.6660485 93.1787336,31.8054311 92.7387832,31.8054311 C92.4668221,31.8054311 92.2248267,31.7416613 92.014613,31.6132107 C91.8030373,31.4856711 91.6409503,31.3011941 91.526082,31.0620574 C91.4112136,30.8224651 91.3544605,30.541878 91.3544605,30.2207515 C91.3544605,29.723347 91.4775013,29.3361732 91.725853,29.0587746 C91.9737508,28.7813759 92.3179019,28.6419934 92.7573982,28.6419934 C93.1832738,28.6419934 93.5215226,28.7841089 93.7721445,29.0683401 C94.0232204,29.3521157 94.1489853,29.737012 94.1489853,30.2207515 L94.1489853,30.2207515 Z M91.8307329,30.2207515 C91.8307329,30.6106583 91.9092792,30.9080989 92.0645558,31.1117067 C92.2202864,31.3162256 92.4477531,31.4182573 92.7501338,31.4182573 C93.0511525,31.4182573 93.2799812,31.3166811 93.4366199,31.1135287 C93.5932585,30.9099208 93.6713509,30.6124803 93.6713509,30.2207515 C93.6713509,29.8326667 93.5932585,29.5384146 93.4366199,29.3370842 C93.2799812,29.1362093 93.0493364,29.0350887 92.7446855,29.0350887 C92.4427588,29.0350887 92.2157462,29.1343874 92.0622857,29.3329847 C91.9079171,29.5311266 91.8307329,29.8276562 91.8307329,30.2207515 L91.8307329,30.2207515 Z M97.5010531,28.6980197 L97.5010531,28.9904498 L96.9380619,29.0569526 C96.9893668,29.1220889 97.0356774,29.2068116 97.0765396,29.3120318 C97.1193342,29.4253194 97.1402881,29.5457317 97.138287,29.6668652 C97.138287,29.9656723 97.0356774,30.2043535 96.8327281,30.3824535 C96.6293248,30.5605534 96.3496453,30.6498312 95.9941436,30.6498312 C95.9033386,30.6498312 95.8179819,30.6416322 95.7389815,30.6275117 C95.5423886,30.7313654 95.4452272,30.862549 95.4452272,31.0201515 C95.4452272,31.1035077 95.4788251,31.1645446 95.5478369,31.2046284 C95.6154866,31.2447123 95.7335332,31.2647543 95.8997064,31.2647543 L96.4381802,31.2647543 C96.7682565,31.2647543 97.0206945,31.33399 97.1977643,31.4738281 C97.3743801,31.6127552 97.462461,31.8149965 97.462461,32.0805522 C97.462461,32.4185322 97.3271615,32.6763444 97.0574706,32.8530778 C96.7868716,33.0307223 96.3927777,33.119089 95.875189,33.119089 C95.477463,33.119089 95.17145,33.0448427 94.955334,32.8963502 C94.7396721,32.7478577 94.6316141,32.5378728 94.6316141,32.2673066 C94.6316141,32.0814632 94.6915454,31.9206722 94.809592,31.7853891 C94.9285466,31.6496506 95.0956278,31.5576398 95.3099277,31.5098125 C95.2308964,31.4738562 95.1630982,31.4170168 95.1137888,31.3453775 C95.0607258,31.2698944 95.032906,31.1794658 95.0343344,31.0871098 C95.0343344,30.9755126 95.0643001,30.8775805 95.1233234,30.7942242 C95.1832547,30.7104125 95.2758758,30.6297892 95.4039109,30.5523545 C95.2441564,30.4851061 95.1097054,30.3688734 95.0198056,30.220296 C94.9190546,30.060514 94.8672737,29.8745748 94.8708854,29.6855406 C94.8708854,29.3516602 94.9707709,29.093848 95.1700879,28.9134705 C95.369859,28.7326376 95.6527167,28.6415379 96.019115,28.6415379 C96.1784778,28.6415379 96.3219498,28.6602133 96.4495309,28.6975642 L97.5010531,28.6975642 L97.5010531,28.6980197 Z M95.0756507,32.2618407 C95.0756507,32.4267311 95.1451166,32.5524488 95.2840483,32.637627 C95.423434,32.7232607 95.621389,32.7656221 95.8806373,32.7656221 C96.2674668,32.7656221 96.5530486,32.7073183 96.7391989,32.5911661 C96.9258033,32.4754695 97.0184244,32.317867 97.0184244,32.1197251 C97.0184244,31.9548346 96.9675736,31.840049 96.8658719,31.7758237 C96.7637163,31.7111429 96.5725717,31.679258 96.2910761,31.679258 L95.7389815,31.679258 C95.5292219,31.679258 95.3666808,31.7293628 95.2509044,31.830028 C95.134674,31.9306932 95.0756507,32.0741752 95.0756507,32.2618407 L95.0756507,32.2618407 Z M95.3253646,29.6750642 C95.3253646,29.888693 95.3862039,30.050395 95.5051585,30.1597147 C95.6259292,30.2690343 95.7930105,30.3236942 96.0073104,30.3236942 C96.4572493,30.3236942 96.6815377,30.1050548 96.6815377,29.6668652 C96.6815377,29.2081781 96.4540711,28.9790623 95.9991379,28.9790623 C95.7825679,28.9790623 95.6154866,29.0378217 95.4992562,29.1544293 C95.3843878,29.2710369 95.3253646,29.4450374 95.3253646,29.6750642 Z M97.9469059,28.6980197 L98.4408852,28.6980197 L99.1069402,30.4380243 C99.2531363,30.8352191 99.3439413,31.1217277 99.3789012,31.2980056 L99.4011485,31.2980056 C99.4256658,31.2037174 99.4760626,31.0420154 99.5527929,30.8128997 C99.6295231,30.5837839 99.8810531,29.878672 100.306021,28.6980197 L100.8,28.6980197 L99.4928615,32.1730184 C99.3634644,32.5160089 99.21182,32.7597006 99.0392904,32.9036382 C98.8663068,33.0475757 98.653823,33.12 98.4022931,33.12 C98.2621779,33.12 98.122513,33.1040883 97.985952,33.0726281 L97.985952,32.7023078 C98.0881077,32.7246272 98.201614,32.7360147 98.327833,32.7360147 C98.6433805,32.7360147 98.869485,32.5579147 99.0043305,32.2017148 L99.1736819,31.7667137 L97.9469059,28.6980197 L97.9469059,28.6980197 Z" id="Shape" fill="#161616" fill-rule="nonzero"></path>
            </g>
        </g>
    </g>
</svg>