<?xml version="1.0" encoding="UTF-8"?>
<svg width="66px" height="30px" viewBox="0 0 66 30" version="1.1" xmlns="http://www.w3.org/2000/svg" xmlns:xlink="http://www.w3.org/1999/xlink">
    <title>pdf-association-logo</title>
    <g id="Page-1" stroke="none" stroke-width="1" fill="none" fill-rule="evenodd">
        <g id="pdf-association-logo" fill="#161616" fill-rule="nonzero">
            <g id="Group">
                <path d="M0,18.087 L6.016,18.087 L6.016,12.071 L0,12.071 L0,18.087 Z M12.071,18.087 L18.087,18.087 L18.087,12.071 L12.071,12.071 L12.071,18.087 Z" id="Shape"></path>
                <path d="M12.071,6.016 L18.087,6.016 L18.087,0 L12.071,0 L12.071,6.016 Z M6.055,12.071 L12.071,12.071 L12.071,6.055 L6.055,6.055 L6.055,12.071 Z" id="Shape"></path>
            </g>
            <g id="Group" transform="translate(0.335000, 0.231000)">
                <path d="M3.929,27.778 L3.929,26.277 C2.117,26.505 1.514,26.979 1.514,27.653 C1.514,28.243 1.916,28.501 2.477,28.501 C3.021,28.501 3.435,28.235 3.93,27.778 M0.002,27.773 C0.002,26.343 1.188,25.597 3.93,25.304 C3.908,24.586 3.62,23.988 2.717,23.988 C2.053,23.988 1.428,24.287 0.84,24.646 L0.263,23.602 C0.997,23.14 1.944,22.726 3.005,22.726 C4.675,22.726 5.497,23.754 5.497,25.614 L5.497,29.567 L4.212,29.567 L4.092,28.827 L4.048,28.827 C3.45,29.338 2.764,29.73 1.975,29.73 C0.805,29.73 -8.8817842e-16,28.936 -8.8817842e-16,27.772" id="Shape"></path>
                <path d="M6.715,28.8 L7.444,27.805 C8.037,28.267 8.611,28.55 9.288,28.55 C10.017,28.55 10.36,28.208 10.36,27.751 C10.36,27.191 9.636,26.941 8.924,26.669 C8.048,26.34 7.047,25.837 7.047,24.722 C7.047,23.563 7.983,22.726 9.479,22.726 C10.409,22.726 11.155,23.104 11.699,23.525 L10.981,24.488 C10.513,24.145 10.043,23.906 9.518,23.906 C8.846,23.906 8.528,24.227 8.528,24.646 C8.528,25.173 9.202,25.375 9.926,25.641 C10.829,25.978 11.841,26.413 11.841,27.659 C11.841,28.806 10.932,29.731 9.246,29.731 C8.32310872,29.7088814 7.43350004,29.3818711 6.716,28.801" id="B"></path>
                <path d="M12.577,28.8 L13.306,27.805 C13.899,28.267 14.473,28.55 15.15,28.55 C15.879,28.55 16.222,28.208 16.222,27.751 C16.222,27.191 15.498,26.941 14.786,26.669 C13.91,26.34 12.909,25.837 12.909,24.722 C12.909,23.563 13.845,22.726 15.341,22.726 C16.271,22.726 17.017,23.104 17.561,23.525 L16.843,24.488 C16.375,24.145 15.905,23.906 15.38,23.906 C14.708,23.906 14.39,24.227 14.39,24.646 C14.39,25.173 15.064,25.375 15.788,25.641 C16.691,25.978 17.703,26.413 17.703,27.659 C17.703,28.806 16.794,29.731 15.108,29.731 C14.1851087,29.7088814 13.2955,29.3818711 12.578,28.801" id="B"></path>
                <path d="M23.406,26.233 C23.406,24.895 22.818,24.003 21.839,24.003 C20.86,24.003 20.272,24.895 20.272,26.233 C20.272,27.571 20.86,28.452 21.839,28.452 C22.818,28.452 23.406,27.571 23.406,26.233 M18.662,26.233 C18.662,24.009 20.174,22.725 21.839,22.725 C23.504,22.725 25.016,24.008 25.016,26.233 C25.016,28.446 23.504,29.73 21.839,29.73 C20.174,29.73 18.662,28.447 18.662,26.233 M26.129,26.233 C26.129,24.009 27.701,22.725 29.48,22.725 C30.329,22.725 30.949,23.051 31.433,23.476 L30.671,24.493 C30.317,24.183 29.98,24.003 29.561,24.003 C28.484,24.003 27.739,24.895 27.739,26.233 C27.739,27.571 28.473,28.452 29.512,28.452 C30.034,28.452 30.513,28.197 30.894,27.876 L31.531,28.909 C30.9277792,29.4390277 30.1519967,29.7309238 29.349,29.7300022 C27.527,29.7300022 26.128,28.447 26.128,26.233" id="Shape"></path>
                <path d="M32.853,29.567 L34.42,29.567 L34.42,22.889 L32.853,22.889 L32.853,29.567 L32.853,29.567 Z M32.674,20.833 C32.674,20.305 33.087,19.946 33.642,19.946 C34.197,19.946 34.61,20.305 34.61,20.833 C34.61,21.349 34.197,21.719 33.642,21.719 C33.087,21.719 32.674,21.349 32.674,20.833 L32.674,20.833 Z" id="C"></path>
                <path d="M39.986,27.778 L39.986,26.277 C38.174,26.505 37.571,26.979 37.571,27.653 C37.571,28.243 37.973,28.501 38.534,28.501 C39.078,28.501 39.492,28.235 39.987,27.778 M36.059,27.773 C36.059,26.343 37.245,25.597 39.987,25.304 C39.965,24.586 39.677,23.988 38.774,23.988 C38.11,23.988 37.485,24.287 36.897,24.646 L36.321,23.602 C37.055,23.14 38.002,22.726 39.063,22.726 C40.733,22.726 41.555,23.754 41.555,25.614 L41.555,29.567 L40.271,29.567 L40.151,28.827 L40.108,28.827 C39.51,29.338 38.824,29.73 38.035,29.73 C36.865,29.73 36.06,28.936 36.06,27.772 M43.451,27.316 L43.451,24.135 L42.499,24.135 L42.499,22.959 L43.533,22.888 L43.718,21.066 L45.018,21.066 L45.018,22.888 L46.721,22.888 L46.721,24.134 L45.018,24.134 L45.018,27.312 C45.018,28.098 45.323,28.484 45.964,28.484 C46.193,28.484 46.464,28.408 46.66,28.332 L46.926,29.485 C46.562,29.605 46.097,29.73 45.561,29.73 C44.021,29.73 43.45,28.757 43.45,27.316" id="Shape"></path>
                <path d="M48.127,29.567 L49.694,29.567 L49.694,22.889 L48.127,22.889 L48.127,29.567 L48.127,29.567 Z M47.948,20.833 C47.948,20.305 48.361,19.946 48.916,19.946 C49.471,19.946 49.884,20.305 49.884,20.833 C49.884,21.349 49.471,21.719 48.916,21.719 C48.361,21.719 47.948,21.349 47.948,20.833 L47.948,20.833 Z" id="C"></path>
                <path d="M55.994,26.233 C55.994,24.895 55.406,24.003 54.427,24.003 C53.448,24.003 52.86,24.895 52.86,26.233 C52.86,27.571 53.448,28.452 54.427,28.452 C55.406,28.452 55.994,27.571 55.994,26.233 M51.25,26.233 C51.25,24.009 52.763,22.725 54.427,22.725 C56.091,22.725 57.604,24.008 57.604,26.233 C57.604,28.446 56.091,29.73 54.427,29.73 C52.763,29.73 51.25,28.447 51.25,26.233 M59.158,22.889 L60.442,22.889 L60.562,23.792 L60.605,23.792 C61.204,23.21 61.884,22.726 62.798,22.726 C64.229,22.726 64.854,23.694 64.854,25.38 L64.854,29.568 L63.287,29.568 L63.287,25.582 C63.287,24.484 62.972,24.07 62.248,24.07 C61.66,24.07 61.274,24.358 60.725,24.902 L60.725,29.568 L59.158,29.568 L59.158,22.889 L59.158,22.889 Z M28.367,8.466 C30.555,8.466 31.59,7.491 31.59,5.66 C31.59,3.819 30.412,3.158 28.259,3.158 L26.427,3.158 L26.427,8.466 L28.368,8.466 L28.367,8.466 Z M22.448,0.001 L28.495,0.001 C32.368,0.001 35.491,1.386 35.491,5.66 C35.491,9.795 32.333,11.624 28.603,11.624 L26.428,11.624 L26.428,17.593 L22.449,17.593 L22.449,0.001 L22.448,0.001 Z M42.466,14.391 C45.451,14.391 47.468,12.928 47.468,8.721 C47.468,4.514 45.451,3.203 42.466,3.203 L41.711,3.203 L41.711,14.391 L42.466,14.391 Z M37.732,0 L42.708,0 C48.083,0 51.546,2.673 51.546,8.72 C51.546,14.767 48.083,17.593 42.93,17.593 L37.732,17.593 L37.732,0 Z" id="Shape"></path>
                <polygon id="Path" points="54.07 0.001 65.177 0.001 65.177 3.337 58.049 3.337 58.049 7.416 64.139 7.416 64.139 10.752 58.049 10.752 58.049 17.595 54.07 17.595"></polygon>
            </g>
        </g>
    </g>
</svg>