<?xml version="1.0" encoding="UTF-8"?>
<svg width="65px" height="30px" viewBox="0 0 65 30" version="1.1" xmlns="http://www.w3.org/2000/svg" xmlns:xlink="http://www.w3.org/1999/xlink">
    <title>iso-logo</title>
    <g id="Page-1" stroke="none" stroke-width="1" fill="none" fill-rule="evenodd">
        <g id="iso-logo" transform="translate(-0.000444, 0.000739)" fill="#161616" fill-rule="nonzero">
            <path d="M44.2104442,18.7672613 L44.2104442,17.5022613 L41.7554442,17.5022613 C41.9214442,17.1132613 42.4304442,16.6852613 43.1054442,16.0432613 C43.9664442,15.2262613 44.2004442,14.8372613 44.2004442,13.8052613 C44.2004442,12.7252613 43.7404442,11.8792613 42.0584442,11.8792613 C40.5714442,11.8792613 39.8284442,12.5702613 39.8284442,13.9512613 L39.8284442,14.1752613 L41.3544442,14.1752613 C41.3544442,13.6502613 41.3544442,12.9102613 41.9804442,12.9102613 C42.4494442,12.9102613 42.5574442,13.2702613 42.5574442,13.8152613 C42.5574442,14.3312613 42.5374442,14.6132613 41.3544442,15.6642613 C40.7774442,16.1802613 39.7894442,17.1432613 39.7894442,18.7682613 L44.2104442,18.7682613 L44.2104442,18.7672613 Z M47.7964442,18.7672613 C47.8644442,17.2392613 48.6084442,14.8362613 49.6744442,13.2312613 L49.6744442,12.0152613 L45.2634442,12.0152613 L45.2634442,13.3972613 L48.1004442,13.3972613 C47.1024442,14.6912613 46.1934442,17.1822613 46.0954442,18.7682613 L47.7974442,18.7682613 L47.7964442,18.7672613 Z M52.9864442,18.9032613 C55.0504442,18.9032613 55.2554442,17.3662613 55.2654442,15.3912613 C55.2654442,13.1732613 55.0604442,11.8792613 52.9864442,11.8792613 C50.9224442,11.8792613 50.7174442,13.4162613 50.7074442,15.3912613 C50.7074442,17.6092613 50.9124442,18.9032613 52.9864442,18.9032613 L52.9864442,18.9032613 Z M52.9864442,17.8722613 C52.4484442,17.8722613 52.3564442,17.3832613 52.3514442,15.6042613 L52.3514442,15.4012613 C52.3514442,13.4362613 52.4294442,12.9102613 52.9874442,12.9102613 C53.5454442,12.9102613 53.6234442,13.4352613 53.6234442,15.4012613 C53.6234442,17.3472613 53.5454442,17.8722613 52.9874442,17.8722613 L52.9864442,17.8722613 Z M58.4794442,18.9032613 C60.5434442,18.9032613 60.7484442,17.3662613 60.7584442,15.3912613 C60.7584442,13.1732613 60.5534442,11.8792613 58.4794442,11.8792613 C56.4154442,11.8792613 56.2104442,13.4162613 56.2004442,15.3912613 C56.2004442,17.6092613 56.4054442,18.9032613 58.4794442,18.9032613 Z M58.4794442,17.8722613 C57.9414442,17.8722613 57.8494442,17.3832613 57.8444442,15.6042613 L57.8444442,15.4012613 C57.8444442,13.4362613 57.9224442,12.9102613 58.4804442,12.9102613 C59.0184442,12.9102613 59.1104442,13.4002613 59.1154442,15.2032613 L59.1154442,15.4012613 C59.1154442,17.3472613 59.0374442,17.8722613 58.4794442,17.8722613 Z M64.9994442,18.7672613 L64.9994442,11.8792613 L63.8454442,11.8792613 C63.7674442,12.3172613 63.4734442,12.9592613 62.2314442,12.9592613 L62.0264442,12.9592613 L62.0264442,13.9902613 L63.3564442,13.9902613 L63.3564442,18.7672613 L65.0004442,18.7672613 L64.9994442,18.7672613 Z M18.6194442,0.0532612701 C18.0595724,-0.0107061927 17.4946154,-0.0170728487 16.9334442,0.0342612701 C16.7254442,0.0152612701 16.4784442,0.0342612701 16.2324442,0.0532612701 C11.5804194,0.414477865 7.37214249,2.95123251 4.88044419,6.89626127 C5.07044419,6.87726127 5.29744419,6.95326127 5.48644419,6.87726127 C5.95374684,6.20996656 6.46663702,5.57578704 7.02144419,4.97926127 C7.51444419,4.50026127 7.96944419,4.04026127 8.49944419,3.69526127 L10.0154442,4.59626127 C9.42844419,5.34426127 8.82144419,6.09126127 8.38544419,6.89626127 C8.51844419,6.95326127 8.76444419,6.93426127 8.95444419,6.89626127 C9.42844419,6.18726127 9.93944419,5.47826127 10.5464442,4.84526127 L12.9914442,5.70826127 L13.0674442,5.78526127 L12.5934442,6.89726127 C12.8014442,6.93526127 12.9344442,6.91626127 13.1434442,6.89726127 L13.6364442,5.88126127 C14.7354442,6.13026127 15.8914442,6.26426127 17.0664442,6.30326127 C17.2184442,6.43726127 17.1044442,6.72526127 17.1614442,6.89726127 L17.6734442,6.89726127 C17.7304442,6.70526127 17.6544442,6.49426127 17.7304442,6.32226127 C18.8294442,6.26426127 19.9854442,6.14926127 21.0464442,5.88126127 L21.1414442,5.90026127 L21.6534442,6.89726127 C21.8244442,6.89726127 22.0514442,6.93526127 22.1844442,6.85926127 L21.7104442,5.74726127 L21.7484442,5.70926127 C22.6204442,5.47926127 23.4354442,5.13426127 24.2694442,4.78926127 C24.8564442,5.42126127 25.4064442,6.16926127 25.8994442,6.89726127 C26.1074442,6.89726127 26.3164442,6.91626127 26.4684442,6.85926127 C26.236796,6.43099572 25.9638308,6.02640446 25.6534442,5.65126127 C25.4074442,5.28726127 25.1414442,4.96126127 24.8194442,4.61626127 L24.8194442,4.51926127 L26.1464442,3.73326127 L26.3364442,3.65626127 C27.4924442,4.55726127 28.5154442,5.65026127 29.3304442,6.85726127 C29.5574442,6.85726127 29.7474442,6.93426127 29.9364442,6.83826127 C27.3934442,2.92826127 23.2054442,0.41726127 18.6764442,0.0532612701 L18.6574442,0.0912612701 L18.6194442,0.0532612701 Z M20.5714442,0.91626127 L20.5714442,0.95426127 C18.9224442,2.18126127 16.2504442,2.29626127 14.5074442,1.16526127 C14.4124442,1.08826127 14.2234442,1.05026127 14.2044442,0.91626127 C16.2134442,0.43726127 18.5824442,0.39826127 20.5724442,0.91626127 L20.5714442,0.91626127 Z M25.7824442,3.25426127 L25.7444442,3.33126127 L24.4364442,4.07926127 L24.3414442,4.07926127 C23.3374442,3.04426127 22.1624442,2.14326127 20.9684442,1.43426127 C21.0064442,1.30026127 21.1954442,1.20426127 21.3284442,1.10826127 C22.9204442,1.53026127 24.4174442,2.25826127 25.7814442,3.25526127 L25.7824442,3.25426127 Z M13.8434442,1.43326127 C12.6684442,2.18126127 11.5124442,3.06226127 10.4514442,4.13626127 C9.93944419,3.94426127 9.46644419,3.65726127 9.01144419,3.33126127 L9.01144419,3.29326127 C10.2054442,2.39226127 11.5314442,1.72126127 12.9344442,1.26126127 C12.9914442,1.20426127 13.0294442,1.14626127 13.1054442,1.14626127 L13.1054442,1.18426127 C13.2574442,1.22226127 13.3704442,1.05026127 13.5034442,1.16526127 C13.6174442,1.26126127 13.7494442,1.33826127 13.8444442,1.43326127 L13.8434442,1.43326127 Z M23.7924442,4.32726127 L23.7544442,4.38526127 C23.0154442,4.71126127 22.2574442,5.01826127 21.4424442,5.19026127 C20.8477134,4.15206298 20.1960528,3.14753084 19.4904442,2.18126127 C19.7554442,2.02826127 20.0774442,1.91326127 20.3624442,1.75926127 C21.5944442,2.39226127 22.7884442,3.29226127 23.7924442,4.32726127 L23.7924442,4.32726127 Z M15.2644442,2.14226127 L15.2074442,2.29526127 C14.4874442,3.21526127 13.9184442,4.21226127 13.3504442,5.18926127 L13.2744442,5.20826127 C12.5030211,5.00681071 11.7489494,4.74397239 11.0194442,4.42226127 L11.0574442,4.30726127 C12.0994442,3.29126127 13.1984442,2.44826127 14.4114442,1.79626127 C14.6954442,1.91126127 14.9804442,2.00726127 15.2644442,2.14126127 L15.2644442,2.14226127 Z M17.1024442,2.50626127 C17.1594442,3.50326127 17.1214442,4.65326127 17.1214442,5.70726127 C16.5904442,5.78426127 16.1174442,5.68826127 15.5864442,5.65026127 C15.0744442,5.57326127 14.4304442,5.51626127 13.9184442,5.34326127 C14.4684442,4.28926127 15.1124442,3.27326127 15.8894442,2.33426127 L17.1024442,2.50626127 Z M18.8834442,2.35326127 C19.6224442,3.31126127 20.3424442,4.28926127 20.8354442,5.34326127 C19.8121724,5.5954894 18.7623414,5.72407439 17.7084442,5.72626127 C17.6704442,4.71026127 17.6894442,3.57926127 17.7084442,2.52526127 L18.8834442,2.35326127 L18.8834442,2.35326127 Z M17.3484442,8.87026127 C15.2634442,7.96926127 12.3454442,7.87326127 10.4504442,9.27326127 C9.21844419,10.1932613 8.83944419,11.8412613 9.16144419,13.2982613 C9.40744419,14.6782613 10.6964442,15.6942613 11.9284442,16.1732613 C13.6154442,16.7862613 15.3774442,17.2272613 17.0834442,17.8222613 C17.2544442,17.8992613 17.4814442,18.0712613 17.4434442,18.2822613 C17.4434442,18.4552613 17.2724442,18.5502613 17.1404442,18.6272613 C15.3594442,19.1252613 13.4264442,18.7422613 12.1374442,17.3622613 C11.9854442,17.1702613 11.8914442,16.9402613 11.7394442,16.7492613 L9.18144419,16.7682613 C9.14344419,18.3212613 9.12444419,20.1032613 9.18144419,21.6362613 L12.0244442,21.6172613 L12.0624442,20.6972613 C12.3844442,20.8502613 12.7064442,21.0422613 13.0284442,21.2152613 C14.9994442,22.0582613 17.5384442,22.2502613 19.4904442,21.2152613 C20.9114442,20.4102613 21.6694442,18.8572613 21.4614442,17.1902613 C21.2534442,15.5612613 19.7374442,14.0852613 18.2024442,13.6822613 L13.6164442,12.3212613 L13.2754442,12.1492613 C13.1234442,12.0152613 13.0294442,11.8422613 13.0674442,11.6312613 C13.4274442,10.9982613 14.2614442,11.1902613 14.8864442,11.2092613 C16.2134442,11.4012613 17.5774442,11.8612613 18.3544442,13.1072613 C19.1884442,13.1072613 20.1544442,13.1262613 21.0644442,13.0882613 C21.1024442,11.5162613 21.0454442,10.1362613 21.0264442,8.54526127 C20.1104706,8.52288983 19.1940209,8.52922628 18.2784442,8.56426127 C18.2404442,8.79426127 18.3164442,9.12026127 18.2214442,9.35026127 L17.3494442,8.87126127 L17.3484442,8.87026127 Z M33.4184442,9.48326127 C30.9544442,7.87326127 27.2024442,7.75826127 24.6634442,9.21526127 C23.2804442,9.94326127 22.3704442,11.3812613 22.0864442,12.8572613 C21.5744442,15.2912613 21.7074442,18.1862613 23.5264442,20.0072613 C25.6494442,21.9242613 28.7374442,22.3452613 31.4854442,21.5602613 C31.7727723,21.4984813 32.0512605,21.4010608 32.3144442,21.2702613 L32.3954442,21.2342613 C33.2935891,20.8538823 34.0772748,20.2463019 34.6694442,19.4712613 C36.0714442,17.3632613 36.1664442,14.2002613 35.3134442,11.8232613 C34.9724442,10.9032613 34.2714442,10.0792613 33.4184442,9.48526127 L33.4184442,9.48326127 Z M30.6324442,12.2432613 C30.9164442,12.6842613 30.8974442,13.2592613 30.9544442,13.7762613 C30.9354442,14.8692613 31.0304442,16.1722613 30.8404442,17.2842613 C30.7454442,17.7442613 30.4424442,18.2232613 29.9684442,18.3962613 C29.2104442,18.7412613 28.1874442,18.6452613 27.4864442,18.2432613 C26.8984442,17.8212613 26.8234442,17.1122613 26.7474442,16.4412613 C26.6904442,15.1182613 26.5954442,13.7192613 26.9554442,12.5122613 C27.2394442,11.7642613 28.0164442,11.5732613 28.7184442,11.5152613 C29.4574442,11.5152613 30.1774442,11.6302613 30.6324442,12.2432613 Z M1.22244419,8.33326127 L0.0474441942,8.35226127 C0.0284441942,9.36826127 0.0284441942,10.5562613 0.0474441942,11.5912613 C0.691444194,11.6102613 1.29844419,11.5912613 1.92344419,11.6482613 L1.92344419,18.1652613 L1.90444419,18.4332613 L0.0284441942,18.4712613 C-0.00948139807,19.5252535 -0.00948139807,20.580269 0.0284441942,21.6342613 L8.38544419,21.6342613 L8.38544419,18.4712613 C7.76044419,18.4332613 7.05844419,18.4902613 6.45244419,18.4142613 L6.47144419,11.6862613 L6.50944419,11.6282613 L8.38544419,11.6092613 C8.40444419,10.5162613 8.42344419,9.34726127 8.36644419,8.35026127 L1.22244419,8.33126127 L1.22244419,8.33326127 Z M13.2374442,23.0542613 C13.0474442,23.0542613 12.8394442,23.0162613 12.7064442,23.0732613 L13.1804442,24.2042613 L13.1234442,24.2612613 C12.2704442,24.5102613 11.4364442,24.8172613 10.6214442,25.1622613 L10.5454442,25.1242613 C10.0144442,24.5302613 9.50344419,23.8782613 9.08644419,23.2272613 C8.99144419,22.9012613 8.61244419,23.0932613 8.40444419,23.0542613 C8.85944419,23.8972613 9.46544419,24.6452613 10.0724442,25.4122613 C9.56044419,25.7192613 9.04944419,26.0642613 8.51844419,26.3132613 C7.38144419,25.4312613 6.32044419,24.2812613 5.52444419,23.0742613 C5.29744419,23.0362613 5.14544419,23.0552613 4.91844419,23.0742613 C6.28244419,25.2592613 8.40544419,27.1762613 10.6224442,28.3072613 C10.6224442,28.3072613 10.6224442,28.2882613 10.6414442,28.2882613 C10.6604442,28.2882613 10.6984442,28.3262613 10.6604442,28.3462613 C12.1574442,29.0932613 13.7494442,29.6302613 15.4354442,29.8602613 C21.2534442,30.6462613 26.8054442,28.0972613 30.0274442,23.0752613 C29.8574442,23.0562613 29.6104442,23.0562613 29.4214442,23.0752613 C28.6254442,24.2442613 27.6214442,25.3752613 26.5224442,26.2572613 C26.4844442,26.3142613 26.3704442,26.2952613 26.3324442,26.2382613 C25.8584442,25.9312613 25.3474442,25.6822613 24.8924442,25.3752613 C25.4984442,24.6272613 26.0864442,23.8802613 26.5414442,23.0562613 L25.9534442,23.0562613 C25.4794442,23.7652613 24.9874442,24.5132613 24.3614442,25.1452613 C23.5274442,24.8002613 22.7694442,24.4932613 21.9164442,24.2632613 L21.8214442,24.1862613 C21.9544442,23.8032613 22.2004442,23.4392613 22.2764442,23.0552613 L21.7644442,23.0552613 L21.2524442,24.0902613 C20.1344442,23.8412613 18.9024442,23.7072613 17.7654442,23.6302613 C17.7084442,23.4572613 17.7844442,23.2082613 17.7084442,23.0552613 L17.2154442,23.0552613 C17.1774442,23.2852613 17.2724442,23.4572613 17.1584442,23.6492613 C16.0121239,23.7001046 14.8715931,23.8412081 13.7474442,24.0712613 L13.2354442,23.0552613 L13.2374442,23.0542613 Z M17.2174442,27.4632613 C16.8194442,27.5592613 16.3834442,27.5592613 16.0044442,27.6552613 C15.2274442,26.7162613 14.5834442,25.7002613 14.0334442,24.6462613 L14.1284442,24.5692613 C15.1134442,24.3772613 16.1374442,24.2242613 17.1984442,24.2242613 L17.2174442,27.4632613 L17.2174442,27.4632613 Z M20.9504442,24.6072613 L20.9694442,24.6642613 C20.4384442,25.6992613 19.7754442,26.6962613 19.0554442,27.6352613 C18.7334442,27.6742613 18.4294442,27.5392613 18.1074442,27.5202613 L17.7854442,27.4822613 C17.7474442,26.3512613 17.7284442,25.3542613 17.7854442,24.2242613 C18.8654442,24.2432613 19.9454442,24.3582613 20.9504442,24.6072613 L20.9504442,24.6072613 Z M13.4644442,24.7792613 C14.0144442,25.8332613 14.6964442,26.8302613 15.3784442,27.8272613 C15.1134442,27.9802613 14.7914442,28.0762613 14.5254442,28.2302613 C13.2390905,27.5750406 12.0729465,26.7067722 11.0764442,25.6622613 L11.0764442,25.6042613 C11.8154442,25.2402613 12.5924442,24.9722613 13.3884442,24.7612613 L13.4644442,24.7802613 L13.4644442,24.7792613 Z M23.8874442,25.5842613 C23.2814442,26.2932613 22.5034442,26.9072613 21.7834442,27.4242613 C21.3474442,27.6922613 20.9114442,27.9802613 20.4564442,28.2102613 L19.6414442,27.8462613 L19.6984442,27.7122613 C20.3756094,26.7873292 20.9835938,25.8136851 21.5174442,24.7992613 L21.5744442,24.7602613 C22.3894442,24.9522613 23.1664442,25.2202613 23.8864442,25.5842613 L23.8874442,25.5842613 Z M25.9154442,26.6762613 C24.8544442,27.5392613 23.6224442,28.1142613 22.3714442,28.5932613 L21.4804442,28.8812613 C21.3284442,28.8042613 21.1964442,28.6892613 21.0634442,28.5742613 L21.1014442,28.5172613 C22.3272886,27.7742193 23.4542313,26.8791164 24.4554442,25.8532613 C24.9674442,26.0642613 25.4594442,26.3512613 25.9144442,26.6772613 L25.9154442,26.6762613 Z M13.9004442,28.5742613 C13.8054442,28.6892613 13.6544442,28.8042613 13.5214442,28.8812613 C11.9294442,28.4592613 10.4514442,27.7312613 9.08644419,26.7342613 L9.08644419,26.6762613 C9.54144419,26.3882613 9.99644419,26.0822613 10.4884442,25.8712613 C11.5684442,26.9632613 12.6864442,27.7882613 13.8994442,28.5742613 L13.9004442,28.5742613 Z M20.6844442,29.0152613 C20.7414442,29.1302613 20.5894442,29.0922613 20.5514442,29.1302613 C18.5424442,29.5712613 16.3064442,29.5902613 14.2974442,29.0922613 C14.2594442,28.9962613 14.3924442,28.9772613 14.4494442,28.9202613 C16.2114442,27.7512613 18.9594442,27.7512613 20.6844442,29.0162613 L20.6844442,29.0152613 Z" id="Shape"></path>
        </g>
    </g>
</svg>