<svg xmlns="http://www.w3.org/2000/svg" width="50" height="50" viewBox="0 0 50 50">
    <g fill="none" fill-rule="evenodd">
        <g fill="#025057">
            <g>
                <g>
                    <g>
                        <g>
                            <path d="M48.204 26.14c-.144 3.166-.942 6.27-2.345 9.112-.912-.577-1.895-1.035-2.923-1.363.643-1.203 1.03-2.528 1.134-3.89-.007-2.856-1.631-5.463-4.194-6.728l-.052-.023c-.186-.09-.375-.174-.568-.25-.133-.051-.27-.092-.406-.135-.083-.025-.158-.056-.239-.083-.215-.061-.433-.11-.652-.152h-.011c-.133-.024-.268-.038-.403-.055-2.141-.297-4.305.352-5.93 1.778-1.624 1.426-2.548 3.488-2.531 5.649.065 1.11.345 2.197.824 3.2.467 1.062.993 2.098 1.577 3.1-.52.57-.996 1.178-1.425 1.82-.23.391-.518.745-.857 1.047-.167-.025-.475-.38-1-1.938-.381-1.182-.501-2.435-.35-3.668.217-1.108.004-2.256-.594-3.213-1.063-1.487-2.919-1.749-4.725-2.005-1.403-.192-2.83-.127-4.21.19-1.066.203-1.56.279-2.126-.074-1.033-.708-1.549-1.96-1.315-3.19.222-.667.888-.907 2.248-1.354 1.775-.51 3.448-1.322 4.946-2.403 1.213-.89 4.413-3.251 4.51-6.473.052-1.763-.83-2.85-1.682-3.902-.788-.844-1.36-1.864-1.671-2.976-.443-1.855.105-4.03 1.592-6.469h.095c4.584.007 9.064 1.361 12.884 3.895-.44.492-.975.891-1.571 1.175-.58.252-1.215.35-1.845.289-.875-.108-1.76.119-2.474.636-1.888 1.421-2.734 5.045-1.037 7.767 1.207 1.93 3.27 2.379 5.523 2.87 1.213.256 2.466.25 3.677-.016.972-.232 1.985-.229 2.955.01 1.091.314 2.116.827 3.022 1.512.942.781 1.656 1.8 2.068 2.952.068.736.11 1.473.11 2.222 0 .373-.007.75-.032 1.135h.003zm-7.743-.48c1.237 1.103 1.945 2.682 1.944 4.34 0 .599-.243 1.786-1.398 4.04-1.317 2.443-2.797 4.795-4.43 7.04-.783-1.093-2.131-3.03-3.337-5.066-.673-1.117-1.273-2.274-1.799-3.466-.391-.798-.626-1.662-.692-2.548.004-3.217 2.61-5.824 5.828-5.828.18 0 .359.008.536.024 1.245.113 2.42.627 3.348 1.464zm-15.54 22.656c-.804 0-1.608-.041-2.409-.124-.068-.087-.131-.178-.19-.273-.562-1.04-.568-2.294-.015-3.34.3-.477.766-.827 1.307-.983.794-.274 1.487-.782 1.986-1.458 1.448-2.036 1.038-5.564-.891-7.698-1.003-1.147-2.423-1.846-3.944-1.942h-.037c-.877.026-1.731.28-2.48.738l-.355.18c-1.82.897-4.408 1.783-6.2 1.582-2.067-.232-3.503-1.924-4.455-3.044-2.209-2.581-2.64-5.437-3.14-8.742-.536-2.827-.557-5.728-.064-8.563.446-.903.95-1.776 1.51-2.614.027.055.057.111.082.166.054.106.109.21.167.316l.25.474c.057.106.115.213.175.32l.267.474.18.316.28.472c.06.104.122.206.184.308.098.167.197.322.297.483l.166.273c.123.198.246.39.368.583l.097.152c.152.236.303.466.452.691l.166.25c.092.138.183.275.272.406l.198.29.214.312.2.287c.061.09.123.177.182.26.059.084.125.18.187.265l.153.215.166.23.136.188.132.182.108.147.102.138.06.083.147.198c.157.21.404.333.666.333.263 0 .51-.124.666-.333.7-.927 6.83-9.145 6.83-12.994 0-.243-.016-.484-.04-.724-.006-.074-.018-.148-.028-.222-.021-.167-.047-.333-.083-.5-.015-.083-.033-.161-.051-.241-.039-.167-.083-.333-.134-.5-.021-.066-.038-.134-.06-.2-.075-.222-.16-.443-.255-.658-.018-.04-.04-.083-.06-.12-.083-.174-.166-.345-.262-.513-.041-.075-.087-.147-.132-.22-.08-.132-.163-.261-.25-.388-.051-.074-.104-.148-.158-.221-.028-.037-.052-.076-.083-.112 1.732-.583 3.529-.955 5.35-1.109-1.298 2.45-1.722 4.717-1.237 6.744.361 1.358 1.047 2.608 1.998 3.643.784.97 1.347 1.669 1.312 2.81-.071 2.415-2.798 4.425-3.83 5.184-1.353.975-2.866 1.705-4.47 2.16-1.513.494-2.817.92-3.316 2.408-.493 1.966.317 4.03 2.016 5.134 1.018.55 2.218.656 3.318.293 1.204-.28 2.449-.34 3.674-.176 1.582.225 2.946.417 3.592 1.323.384.54.364 1.1.29 2.126-.171 1.453-.024 2.925.431 4.315.38 1.14.953 2.86 2.332 3.058.089.014.18.021.27.021.975 0 1.572-.86 2.2-1.767.277-.4.583-.832.949-1.266 1.713 2.768 3.454 5.079 3.535 5.189.157.21.404.332.666.332s.509-.123.666-.332c1.806-2.42 3.453-4.954 4.928-7.588 1.023.296 1.997.74 2.891 1.318-4.165 7.18-11.84 11.6-20.142 11.595zM1.61 25.004c.003-1.55.16-3.098.467-4.62.09 1.158.24 2.188.375 3.08.516 3.415 1.003 6.633 3.52 9.575 1.051 1.24 2.813 3.313 5.537 3.62 2.725.306 6.136-1.26 7.121-1.749l.378-.19c.524-.33 1.122-.521 1.74-.557 1.053.095 2.029.594 2.724 1.39 1.42 1.574 1.781 4.2.772 5.62-.324.423-.77.733-1.28.89-.87.29-1.61.88-2.087 1.665-.704 1.274-.835 2.786-.36 4.162C9.551 45.766 1.626 36.173 1.609 25.004zM11.6 1.692c3.218.006 5.824 2.612 5.829 5.828 0 2.49-3.74 8.192-5.828 11.083-1.98-2.675-3.7-5.533-5.136-8.535-.392-.797-.627-1.662-.692-2.548.004-3.217 2.61-5.824 5.828-5.828zM47.397 18.81c-.106-.094-.204-.202-.314-.289-1.088-.826-2.321-1.442-3.635-1.815-1.197-.3-2.448-.314-3.651-.039-1.023.232-2.084.237-3.11.016-1.99-.435-3.563-.777-4.397-2.11-1.195-1.915-.635-4.606.626-5.554.415-.286.928-.396 1.424-.304.883.073 1.77-.077 2.581-.434.863-.404 1.63-.988 2.248-1.712.158.121.324.23.478.356 3.757 3.06 6.466 7.214 7.75 11.885zm2.421 4.247c.03-.078.046-.16.05-.243 0-.088-.015-.176-.042-.259l-.064-.182c-.68-6.57-3.941-12.6-9.067-16.764-.366-.299-.75-.568-1.132-.845-.02-.015-.03-.038-.05-.053-.02-.015-.037-.013-.055-.024C35.22 1.649 30.138.01 24.924 0c-.215 0-.43 0-.591.017C21.55.072 18.8.6 16.197 1.583c-2.257-1.76-5.32-2.08-7.891-.822-2.572 1.257-4.2 3.871-4.197 6.733.05.952.272 1.887.654 2.76-.85 1.162-1.598 2.394-2.235 3.684-.013.02-.02.041-.031.062-5.903 12.205-.991 26.891 11.067 33.09 12.057 6.197 26.858 1.645 33.348-10.259 1.777-3.275 2.788-6.91 2.954-10.632.026-.402.035-.81.035-1.22 0-.646-.033-1.285-.084-1.922z" transform="translate(-205 -694) translate(-220 598) translate(327 96) translate(98) translate(0 .104)"/>
                            <path d="M11.6 5.023c.92 0 1.665.745 1.665 1.665S12.52 8.353 11.6 8.353s-1.665-.746-1.665-1.665c0-.92.745-1.665 1.665-1.665m0 4.995c1.84 0 3.33-1.49 3.33-3.33s-1.49-3.33-3.33-3.33-3.33 1.49-3.33 3.33 1.49 3.33 3.33 3.33M38.242 29.167c0 .92-.745 1.665-1.665 1.665s-1.665-.745-1.665-1.665.746-1.665 1.665-1.665c.92 0 1.665.746 1.665 1.665m-4.995 0c0 1.84 1.491 3.33 3.33 3.33 1.84 0 3.33-1.49 3.33-3.33 0-1.839-1.49-3.33-3.33-3.33-1.839 0-3.33 1.491-3.33 3.33" transform="translate(-205 -694) translate(-220 598) translate(327 96) translate(98) translate(0 .104)"/>
                        </g>
                    </g>
                </g>
            </g>
        </g>
    </g>
</svg>
