<svg xmlns="http://www.w3.org/2000/svg" width="42" height="50" viewBox="0 0 42 50">
    <g fill="none" fill-rule="evenodd">
        <g fill="#025057" fill-rule="nonzero">
            <g>
                <g>
                    <g>
                        <path d="M39.6 6.626h-4.2V2.41C35.4 1.084 34.32 0 33 0H2.4C1.08 0 0 1.084 0 2.41v38.554c0 1.325 1.08 2.41 2.4 2.41h4.2v4.216C6.6 48.916 7.68 50 9 50h20.4c1.319 0 3.186-.743 4.147-1.651l6.704-6.336c.962-.908 1.748-2.736 1.748-4.061L42 9.036c0-1.325-1.08-2.41-2.4-2.41zm-33 2.41v32.53H2.4c-.325 0-.6-.276-.6-.602V2.41c0-.327.275-.603.6-.603H33c.325 0 .6.276.6.603v4.217H9c-1.32 0-2.4 1.084-2.4 2.41zm32.417 31.66l-6.704 6.337c-.137.13-.316.256-.514.377v-5.543c0-.413.167-.786.44-1.063.277-.275.648-.443 1.06-.443h6.003c-.093.127-.188.244-.285.336zm1.182-2.744c0 .179-.033.386-.082.602h-6.818c-1.82.004-3.296 1.485-3.3 3.313v6.253c-.214.043-.42.073-.6.073H9c-.325 0-.6-.276-.6-.603V9.036c0-.326.275-.602.6-.602h30.6c.326 0 .6.276.6.602v28.916z" transform="translate(-514 -694) translate(-220 598) translate(327 96) translate(407)"/>
                        <path d="M30.733 13.874H13.48c-.493 0-.892.4-.892.893s.399.892.892.892h17.254c.493 0 .893-.4.893-.892 0-.494-.4-.893-.893-.893zM30.733 25.774H13.48c-.493 0-.892.399-.892.892s.399.893.892.893h17.254c.493 0 .893-.4.893-.893s-.4-.892-.893-.892zM22.999 31.723h-9.52c-.493 0-.892.4-.892.893s.399.892.892.892H23c.492 0 .892-.399.892-.892s-.4-.893-.892-.893zM30.733 19.824H13.48c-.493 0-.892.4-.892.892 0 .494.399.893.892.893h17.254c.493 0 .893-.4.893-.893s-.4-.892-.893-.892z" transform="translate(-514 -694) translate(-220 598) translate(327 96) translate(407)"/>
                    </g>
                </g>
            </g>
        </g>
    </g>
</svg>
