<svg xmlns="http://www.w3.org/2000/svg" width="33" height="50" viewBox="0 0 33 50">
    <g fill="none" fill-rule="evenodd">
        <g fill="#025057">
            <g>
                <g>
                    <g>
                        <path d="M26.068 27.264c-.06.059-.179.177-.179.236-2.317 2.48-2.733 6.552-2.793 8.5H9.963c-.06-1.948-.475-6.198-2.971-8.736C3.842 24.549 2 20.594 2 16.403 2 8.434 8.477 2 16.5 2S31 8.434 31 16.403c0 4.19-1.783 8.146-4.932 10.86M16.5 0C7.419 0 0 7.376 0 16.404c0 4.72 2.077 9.264 5.579 12.332 2.612 2.596 2.374 8.143 2.315 8.202 0 .295.06.53.297.767.178.177.474.295.712.295h15.135c.297 0 .534-.118.712-.295.178-.177.297-.472.297-.767 0-.06-.297-5.606 2.314-8.202l.179-.177C30.982 25.432 33 21.006 33 16.404 33 7.376 25.58 0 16.5 0M23.284 41.837H10.432c-.232 0-.464-.174-.464-.463 0-.29.174-.464.464-.464h12.794c.231 0 .463.174.463.464 0 .289-.174.463-.405.463m0-2.837H10.432C9.1 39 8 40.1 8 41.431c0 1.332 1.1 2.432 2.432 2.432h12.794c1.39-.058 2.49-1.1 2.49-2.432 0-1.331-1.1-2.431-2.432-2.431M21.463 47.837h-9.031c-.232 0-.464-.174-.464-.463 0-.29.174-.464.464-.464h9.03c.232 0 .464.174.464.464 0 .29-.232.463-.463.463m0-2.837h-9.031C11.1 45 10 46.1 10 47.431c0 1.332 1.1 2.432 2.432 2.432h9.03c1.332 0 2.432-1.1 2.432-2.432 0-1.389-1.1-2.431-2.431-2.431" transform="translate(-815 -694) translate(-220 598) translate(327 96) translate(708)"/>
                        <path d="M19.639 10.072c-.453-.194-.977.016-1.171.469l-5.35 12.484c-.195.453.015.977.468 1.171.452.194.977-.016 1.17-.468l5.35-12.485c.195-.452-.015-.977-.467-1.17M12.047 12.905c-.308-.385-.87-.447-1.254-.14l-4.459 3.568c-.445.356-.446 1.036 0 1.393l4.46 3.567c.384.307.945.245 1.253-.14.307-.384.245-.946-.14-1.253L8.32 17.03l3.588-2.871c.385-.308.447-.87.14-1.254M26.979 16.438L22.52 12.87c-.384-.308-.946-.246-1.253.139-.308.385-.246.946.139 1.253l3.588 2.871-3.588 2.87c-.385.309-.447.87-.14 1.254.309.385.87.447 1.254.14l4.459-3.568c.446-.356.446-1.035 0-1.392" transform="translate(-815 -694) translate(-220 598) translate(327 96) translate(708)"/>
                    </g>
                </g>
            </g>
        </g>
    </g>
</svg>
