<svg xmlns="http://www.w3.org/2000/svg" width="50" height="50" viewBox="0 0 50 50">
    <g fill="none" fill-rule="evenodd">
        <g fill="#025057" fill-rule="nonzero">
            <g>
                <g>
                    <g>
                        <path d="M30.833 29.167h-.916c-.345 0-.654-.215-.772-.539-.102-.266-.21-.527-.328-.785-.146-.315-.08-.687.166-.93l.654-.655c.97-.978.968-2.556-.005-3.532l-2.355-2.355c-.977-.972-2.555-.972-3.533 0l-.653.652c-.245.245-.616.312-.93.167-.259-.117-.52-.227-.787-.333-.325-.118-.542-.428-.54-.774v-.916c0-1.381-1.12-2.5-2.5-2.5H15c-1.38 0-2.5 1.119-2.5 2.5v.916c0 .345-.214.654-.538.772-.267.102-.528.21-.786.328-.314.146-.686.08-.93-.166l-.654-.654c-.978-.97-2.556-.97-3.533 0l-2.355 2.363c-.972.977-.972 2.556 0 3.533l.653.654c.246.243.312.615.166.93-.117.258-.226.519-.329.786-.12.326-.43.541-.777.538H2.5c-1.38 0-2.5 1.119-2.5 2.5V35c0 1.38 1.12 2.5 2.5 2.5h.917c.344 0 .653.214.771.538.102.267.211.528.329.786.146.314.079.686-.167.93l-.653.654c-.971.978-.971 2.556 0 3.533l2.355 2.355c.977.971 2.556.971 3.533 0l.653-.653c.245-.245.616-.311.93-.166.259.117.52.226.787.333.327.116.546.426.545.773v.917c0 1.38 1.12 2.5 2.5 2.5h3.333c1.381 0 2.5-1.12 2.5-2.5v-.917c0-.344.215-.653.539-.771.266-.102.527-.211.785-.329.315-.145.686-.078.93.167l.655.653c.978.97 2.556.968 3.532-.004l2.355-2.355c.972-.977.972-2.556 0-3.533l-.652-.654c-.246-.243-.313-.615-.167-.93.117-.258.227-.519.333-.786.118-.326.428-.542.774-.541h.916c1.381 0 2.5-1.12 2.5-2.5v-3.333c0-1.381-1.119-2.5-2.5-2.5zM31.667 35c0 .46-.373.833-.834.833h-.916c-1.036.004-1.963.645-2.334 1.612-.088.233-.184.463-.286.69-.429.945-.23 2.057.5 2.796l.651.652c.326.326.326.853.001 1.179l-2.356 2.355c-.325.326-.853.326-1.178 0l-.653-.652c-.739-.73-1.851-.93-2.797-.5-.226.102-.456.198-.688.287-.966.37-1.606 1.296-1.61 2.331v.917c0 .46-.373.833-.834.833H15c-.46 0-.833-.373-.833-.833v-.917c-.004-1.036-.644-1.963-1.612-2.333-.233-.088-.463-.184-.69-.287-.945-.428-2.057-.229-2.796.5l-.652.652c-.326.326-.853.326-1.179 0l-2.356-2.352c-.325-.326-.325-.853 0-1.179l.653-.653c.73-.739.928-1.851.5-2.797-.103-.226-.198-.456-.287-.687-.369-.968-1.296-1.61-2.331-1.614H2.5c-.46 0-.833-.373-.833-.833v-3.333c0-.46.373-.834.833-.834h.917c1.036-.004 1.963-.644 2.333-1.611.088-.234.184-.463.287-.69.428-.945.23-2.057-.5-2.796l-.655-.653c-.326-.325-.326-.853-.001-1.178l2.356-2.356c.325-.325.853-.325 1.178 0l.653.653c.739.73 1.851.929 2.797.5.226-.103.456-.199.688-.287.968-.37 1.609-1.296 1.614-2.332v-.916c0-.46.373-.834.833-.834h3.333c.46 0 .834.373.834.834v.916c.004 1.036.644 1.963 1.611 2.334.234.088.463.184.69.286.945.43 2.058.23 2.796-.5l.653-.651c.326-.323.852-.323 1.179 0l2.355 2.355c.325.325.325.853 0 1.178l-.653.653c-.73.74-.928 1.851-.5 2.797.103.226.199.456.287.688.37.966 1.296 1.606 2.332 1.61h.916c.46 0 .834.373.834.834V35z" transform="translate(-1095 -695) translate(-220 598) translate(327 96) translate(988 1)"/>
                        <path d="M24.15 33c-.008-.2-.022-.4-.047-.597-.026-.214-.058-.425-.102-.633-.03-.136-.068-.27-.104-.405-.047-.172-.1-.34-.158-.507-.04-.116-.083-.231-.127-.346-.107-.266-.23-.527-.367-.78l-.028-.059c-.217-.385-.468-.751-.75-1.092-.024-.03-.052-.058-.077-.088-.115-.135-.233-.267-.358-.393-.064-.068-.133-.13-.201-.196-.084-.077-.167-.154-.25-.227-.101-.088-.204-.173-.31-.255l-.136-.102c-1.29-.966-2.857-1.488-4.468-1.487-.084 0-.167.013-.25.016-.178.005-.356.015-.535.034-.095.01-.19.02-.284.034-.271.035-.54.086-.807.15-4.013 1.037-6.425 5.13-5.388 9.144.683 2.644 2.749 4.708 5.394 5.389.013 0 .027.004.041.008.288.071.58.127.874.166.194.024.388.03.583.038.13.007.25.026.386.026.237 0 .484-.016.736-.04.026 0 .053-.008.083-.011.203-.023.407-.053.617-.094.083-.016.16-.037.24-.055.147-.035.293-.07.443-.115.117-.035.23-.076.344-.116.114-.04.233-.083.351-.128.118-.045.217-.097.325-.147.14-.064.28-.127.417-.202h.005c.777-.416 1.496-.935 2.136-1.542.172-.162.323-.346.446-.547.65-1.043 1.078-2.209 1.255-3.425.023-.161.044-.322.057-.486.012-.15.02-.3.023-.45 0-.048.007-.093.007-.14 0-.118-.011-.227-.016-.34zm-1.66.546c0 .069-.007.138-.01.206-.016.202-.042.404-.076.606-.311 1.733-1.387 3.233-2.928 4.084-.104.054-.205.105-.307.151l-.069.034c-.484.22-.995.374-1.52.46l-.112.017c-.104.015-.206.028-.308.037-.134.012-.27.018-.407.02h-.174c-.197-.002-.394-.014-.59-.036l-.1-.012c-.229-.03-.456-.072-.68-.128-3.122-.799-5.004-3.977-4.205-7.098.527-2.062 2.137-3.673 4.199-4.203.478-.121.97-.183 1.464-.184.238.001.476.017.712.048.063.008.126.02.188.029.18.028.359.064.535.109.057.015.115.028.171.044.443.128.87.308 1.271.535.064.037.127.077.19.116.132.083.26.166.385.261.068.05.136.098.201.15.164.131.32.27.47.417.058.06.113.126.17.189.096.104.19.21.278.323.062.077.121.157.18.238.083.12.166.245.241.372l.126.207c.107.198.203.402.287.611.033.084.061.167.091.25.055.153.101.308.142.465.02.084.044.158.062.238.048.226.084.454.105.683.005.06.005.123.01.183.011.192.015.384.007.578zM47.5 17.5h-2.62c-.35.004-.663-.217-.778-.547-.258-.774-.57-1.529-.935-2.259-.155-.315-.09-.694.16-.94l1.858-1.861c.975-.977.975-2.559 0-3.535l-3.543-3.537c-.976-.976-2.558-.976-3.535 0L36.25 6.678c-.246.25-.625.314-.94.16-.73-.366-1.485-.68-2.26-.94-.331-.114-.553-.427-.55-.777V2.5C32.5 1.12 31.38 0 30 0h-5c-1.38 0-2.5 1.12-2.5 2.5v2.62c.004.35-.216.663-.547.777-.774.26-1.529.574-2.259.94-.315.156-.694.091-.94-.16L16.891 4.82c-.977-.972-2.556-.972-3.534 0L9.822 8.356c-.976.976-.976 2.559 0 3.535l2.732 2.737c.33.32.858.312 1.178-.018.313-.323.314-.835.002-1.158L11 10.715c-.325-.325-.325-.853 0-1.178L14.537 6c.325-.325.853-.325 1.178 0l1.862 1.858c.753.758 1.907.947 2.863.47.66-.33 1.343-.614 2.043-.849 1.01-.342 1.688-1.292 1.684-2.358V2.5c0-.46.373-.833.833-.833h5c.46 0 .833.373.833.833v2.62c-.004 1.067.674 2.017 1.684 2.358.7.235 1.384.52 2.044.85.956.475 2.109.285 2.862-.47L39.285 6c.325-.325.853-.325 1.178 0L44 9.537c.325.326.325.853 0 1.178l-1.858 1.862c-.757.753-.947 1.907-.47 2.863.33.66.614 1.343.849 2.043.342 1.01 1.291 1.688 2.358 1.684H47.5c.46 0 .833.373.833.833v5c0 .46-.373.833-.833.833h-2.62c-1.067-.004-2.017.674-2.358 1.684-.235.7-.52 1.384-.85 2.044-.476.956-.286 2.109.47 2.862l1.859 1.862c.325.325.325.853 0 1.178L40.463 39c-.326.325-.853.325-1.178 0l-2.738-2.733c-.32-.33-.848-.338-1.179-.018-.33.32-.339.848-.018 1.178l.02.02 2.738 2.733c.976.975 2.558.975 3.534 0l3.536-3.536c.976-.976.976-2.559 0-3.535l-1.855-1.859c-.25-.246-.315-.625-.161-.94.366-.73.68-1.485.94-2.26.114-.331.427-.553.777-.55H47.5c1.38 0 2.5-1.12 2.5-2.5v-5c0-1.38-1.12-2.5-2.5-2.5z" transform="translate(-1095 -695) translate(-220 598) translate(327 96) translate(988 1)"/>
                        <path d="M35.16 14.84c-4.233-4.224-11.087-4.224-15.32 0-.32.331-.31.859.02 1.178.323.312.835.312 1.158 0 3.556-3.603 9.36-3.642 12.964-.087 3.603 3.556 3.642 9.36.087 12.964l-.087.087c-.331.32-.34.847-.02 1.178.319.331.847.34 1.178.02l.02-.02c4.224-4.233 4.224-11.087 0-15.32z" transform="translate(-1095 -695) translate(-220 598) translate(327 96) translate(988 1)"/>
                    </g>
                </g>
            </g>
        </g>
    </g>
</svg>
