<svg xmlns="http://www.w3.org/2000/svg" width="40" height="40" viewBox="0 0 40 40">
    <g fill="none" fill-rule="evenodd">
        <g>
            <g>
                <g>
                    <g transform="translate(-501 -172) translate(137 140) translate(332) translate(32 32)">
                        <g fill="#FFF" fill-rule="nonzero">
                            <path d="M16.765 0c1.737 0 3.152 1.382 3.231 3.12l.004.154v18.452C20 23.536 18.553 25 16.765 25H3.235C1.498 25 .083 23.618.004 21.88L0 21.726V3.274C0 1.516 1.366.084 3.083.004L3.235 0h13.53zm-6.177 14.286H4.706c-.647 0-1.177.535-1.177 1.19 0 .655.53 1.19 1.177 1.19h5.882c.647 0 1.177-.535 1.177-1.19 0-.655-.53-1.19-1.177-1.19zm4.706-4.762H4.706c-.647 0-1.177.536-1.177 1.19 0 .655.53 1.19 1.177 1.19h10.588c.647 0 1.177-.535 1.177-1.19 0-.654-.53-1.19-1.177-1.19zM9.412 4.762H4.706c-.647 0-1.177.536-1.177 1.19 0 .655.53 1.19 1.177 1.19h4.706c.647 0 1.176-.535 1.176-1.19 0-.654-.53-1.19-1.176-1.19z"/>
                        </g>
                        <circle cx="34" cy="34" r="6" fill="#FFF"/>
                        <circle cx="34" cy="16" r="6" fill="#FFF"/>
                        <path stroke="#FFF" stroke-width="2" d="M32.441 34h-19c-2.209 0-4-1.79-4-4V20h0"/>
                        <path stroke="#FFF" stroke-width="2" d="M21.5 6.513L21.5 25.487" transform="rotate(90 21.5 16)"/>
                    </g>
                </g>
            </g>
        </g>
    </g>
</svg>
