<svg xmlns="http://www.w3.org/2000/svg" width="40" height="40" viewBox="0 0 40 40">
    <g fill="none" fill-rule="evenodd">
        <g fill="#FFF" fill-rule="nonzero">
            <g>
                <g>
                    <g>
                        <path d="M8.222 23.487l-1.213 1.217-.422.424-2.132 2.142-.211.211-.082.083c-.558-1.153-.992-2.355-1.28-3.606L.893 23.48c-.522-.13-.888-.599-.888-1.137v-4.687c0-.537.366-1.005.887-1.136l1.989-.478c.432-1.888 1.177-3.682 2.219-5.35L4.092 8.998c-.275-.461-.2-1.05.178-1.428l3.304-3.303c.378-.38.967-.454 1.428-.179l1.692 1.008c1.668-1.041 3.463-1.786 5.35-2.219L16.524.89c.13-.52.598-.887 1.136-.887h4.687c.538 0 1.006.367 1.136.887l.479 1.99c1.888.432 3.682 1.177 5.35 2.218l1.693-1.008c.462-.275 1.049-.2 1.428.178l3.303 3.304c.379.379.453.967.179 1.428l-1.008 1.692c1.04 1.669 1.786 3.463 2.218 5.351l1.99.478c.52.13.886.599.886 1.136v4.687c0 .538-.366 1.007-.888 1.137l-1.988.477c-.432 1.889-1.176 3.683-2.219 5.351l1.009 1.693c.274.46.2 1.049-.179 1.428l-3.304 3.303c-.38.378-.969.453-1.428.179l-1.692-1.008c-1.668 1.041-3.462 1.786-5.35 2.218l-.479 1.99c-.13.52-.598.886-1.136.886h-4.687c-.538 0-1.006-.366-1.136-.887l-.478-1.99c-1.246-.287-2.444-.718-3.592-1.272l4.294-4.294c1.035.29 2.126.446 3.253.446 6.627 0 12-5.373 12-12S26.627 8 20 8 8 13.373 8 20c0 1.13.156 2.223.448 3.26z" transform="translate(-833 -172) translate(137 140) translate(664) translate(32 32)"/>
                        <path d="M27.931 17.858c-.103-.404-.414-.721-.816-.831-.401-.11-.83.005-1.125.299L23.316 20c-.914.914-2.4.914-3.313 0-.914-.913-.914-2.4 0-3.314l2.674-2.675c.295-.294.409-.724.298-1.125-.11-.402-.427-.713-.83-.816-4.944-1.256-9.394 1.964-10.21 6.411-.262 1.465-.145 2.924.334 4.267L1.028 33.99c-1.374 1.374-1.374 3.61.022 5.006 1.383 1.311 3.5 1.366 4.962-.022l11.242-11.241c1.8.642 3.808.63 5.773-.064 3.54-1.25 6.018-5.442 4.904-9.811z" transform="translate(-833 -172) translate(137 140) translate(664) translate(32 32)"/>
                    </g>
                </g>
            </g>
        </g>
    </g>
</svg>
