<svg xmlns="http://www.w3.org/2000/svg" width="40" height="40" viewBox="0 0 40 40">
    <g fill="none" fill-rule="evenodd">
        <g fill="#FFF" fill-rule="nonzero">
            <g>
                <g>
                    <g>
                        <path d="M23.704 0H4.574C2.046 0 0 2.05 0 4.583v25.834C0 32.95 2.046 35 4.574 35H16.85l.366-2.05c.167-.933.6-1.767 1.265-2.45l9.797-9.8V4.583C28.278 2.05 26.232 0 23.704 0zM6.654 6.667h6.653c.915 0 1.664.75 1.664 1.666 0 .917-.749 1.667-1.664 1.667H6.654c-.915 0-1.664-.75-1.664-1.667 0-.916.749-1.666 1.664-1.666zm8.317 16.666H6.654c-.915 0-1.664-.75-1.664-1.666C4.99 20.75 5.74 20 6.654 20h8.317c.915 0 1.663.75 1.663 1.667 0 .916-.748 1.666-1.663 1.666zm6.653-6.666H6.654c-.915 0-1.664-.75-1.664-1.667s.749-1.667 1.664-1.667h14.97c.915 0 1.664.75 1.664 1.667s-.749 1.667-1.664 1.667zM20.84 40c-.328 0-.648-.13-.882-.367-.288-.288-.418-.698-.346-1.101l.881-5.009c.044-.251.167-.485.346-.666L33.19 20.483c1.517-1.523 3.008-1.111 3.823-.295l2.057 2.062c1.136 1.137 1.136 2.987 0 4.125L26.72 38.75c-.18.182-.413.303-.666.347l-4.998.883c-.072.013-.145.02-.217.02z" transform="translate(-1829 -172) translate(137 140) translate(1660) translate(32 32)"/>
                    </g>
                </g>
            </g>
        </g>
    </g>
</svg>
