<svg xmlns="http://www.w3.org/2000/svg" width="40" height="40" viewBox="0 0 40 40">
    <g fill="none" fill-rule="evenodd">
        <g fill="#FFF" fill-rule="nonzero">
            <g>
                <g>
                    <g>
                        <path d="M29.167 18.333c-5.974 0-10.834 4.86-10.834 10.834C18.333 35.14 23.193 40 29.167 40 35.14 40 40 35.14 40 29.167c0-5.974-4.86-10.834-10.833-10.834zm5.42 8.182l-5.834 6.667c-.303.346-.736.553-1.198.568H27.5c-.442 0-.865-.175-1.178-.488l-3.334-3.334c-.651-.651-.651-1.705 0-2.356.652-.652 1.705-.652 2.357 0l2.073 2.073 4.66-5.327c.607-.69 1.66-.763 2.352-.156.692.606.763 1.66.157 2.353z" transform="translate(-2161 -171) translate(137 140) translate(1992) translate(32 31)"/>
                        <path d="M27.8 5.05l-13.333-5c-.2-.067-.4-.067-.6 0l-13.334 5C.217 5.167 0 5.483 0 5.833V16.55c0 15.2 13.85 18.4 13.983 18.433.067.017.117.017.184.017.066 0 .116 0 .183-.017.033 0 .683-.15 1.683-.533C15.367 32.817 15 31.033 15 29.167c0-7.534 5.9-13.717 13.333-14.15V5.833c0-.35-.216-.666-.533-.783z" transform="translate(-2161 -171) translate(137 140) translate(1992) translate(32 31)"/>
                    </g>
                </g>
            </g>
        </g>
    </g>
</svg>
