<?xml version="1.0" encoding="UTF-8"?>
<svg width="278px" height="172px" viewBox="0 0 278 172" version="1.1" xmlns="http://www.w3.org/2000/svg" xmlns:xlink="http://www.w3.org/1999/xlink">
    <title>developer</title>
    <g id="Page-1" stroke="none" stroke-width="1" fill="none" fill-rule="evenodd">
        <g id="developer" transform="translate(0.666667, 0.306774)" fill="#FFFFFF" fill-rule="nonzero">
            <path d="M119.082667,170.266559 C110.464,168.282559 105.109333,159.706559 107.072,151.087892 L139.072,12.4212255 C141.077333,3.82389217 149.674667,-1.61610783 158.250667,0.43189217 C166.869333,2.41589217 172.224,10.9918922 170.261333,19.6105588 L138.261333,158.277226 C136.234667,167.109226 127.381333,172.293226 119.082667,170.266559 Z" id="Path"></path>
            <path d="M208,149.359892 C203.626667,149.359892 199.274667,147.567892 196.096,144.069226 C190.186667,137.477226 190.72,127.386559 197.290667,121.455892 L237.418667,85.3598922 L197.290667,49.2638922 C190.72,43.3545588 190.186667,33.2425588 196.096,26.6505588 C202.026667,20.0798922 212.138667,19.5678922 218.709333,25.4558922 L272.042667,73.4558922 C275.413333,76.5065588 277.333333,80.8158922 277.333333,85.3598922 C277.333333,89.9038922 275.413333,94.2132255 272.042667,97.2638922 L218.709333,145.263892 C215.637333,148.015892 211.818667,149.359892 208,149.359892 Z" id="Path"></path>
            <path d="M69.3333333,149.359892 C65.5146667,149.359892 61.696,148.015892 58.624,145.263892 L5.29066667,97.2638922 C1.92,94.2132255 -5.68434189e-14,89.9038922 -5.68434189e-14,85.3598922 C-5.68434189e-14,80.8158922 1.92,76.5065588 5.29066667,73.4558922 L58.624,25.4558922 C65.1946667,19.5678922 75.3066667,20.1012255 81.2373333,26.6505588 C87.1466667,33.2425588 86.6133333,43.3332255 80.0426667,49.2638922 L39.9146667,85.3598922 L80.0426667,121.455892 C86.6133333,127.365226 87.1466667,137.477226 81.2373333,144.069226 C78.0586667,147.567892 73.7066667,149.359892 69.3333333,149.359892 Z" id="Path"></path>
        </g>
    </g>
</svg>